<?xml version="1.0" encoding="UTF-8"?> <!-- Generator: Adobe Illustrator 22.1.0, SVG Export Plug-In . SVG Version: 6.00 Build 0) --> <svg xmlns="http://www.w3.org/2000/svg" xmlns:xlink="http://www.w3.org/1999/xlink" id="Слой_1" x="0px" y="0px" viewBox="0 0 244.6999969 60.5" style="enable-background:new 0 0 244.6999969 60.5;" xml:space="preserve"> <g> <g> <path d="M49.0999985,0l7.0999985,7.0999999L63.2999992,0v14.3999996h-3.2000008v-7l-3.9000015,3.8999996l-3.9000015-3.9000001 v7.0000005h-3.2000008C49.0999947,14.3999996,49.0999947,0,49.0999985,0z"></path> <path d="M85.5,0l7,14.3999996h-3.4000015l-1-2.1999998h-5.3000031l-1,2.1999998h-3.4000015L85.5,0z M86.9000015,9.6000004 l-1.3000031-3l-1.3000031,3H86.9000015z"></path> <path d="M111,8.6000004L111,8.6000004v5.8000002h-3.1999969V0.2h5.4000015c2.3000031,0,4.1999969,1.8999999,4.1999969,4.1999998 c0,1.8000002-1.0999985,3.3000002-2.6999969,4l4.5999985,6H115.5L111,8.6000004z M112.6999969,5.9000001 c0.9000015,0,1.5-0.5999999,1.5-1.4000001s-0.5999985-1.4000001-1.5-1.4000001h-1.8000031v2.7999997 C110.8999939,5.8999996,112.6999969,5.8999996,112.6999969,5.9000001z"></path> <path d="M134.3000031,0.2H137.5v14.1999998h-3.1999969V0.2z"></path> <path d="M157.3999939,7v7.3999996h-3.1999969V0l9,7.5999999V0.2h3.1999969v14.3999996L157.3999939,7z"></path> <path d="M188.6000061,0l7,14.3999996h-3.3999939l-1-2.1999998H186l-1,2.1999998h-3.3999939L188.6000061,0z M189.8999939,9.6000004 l-1.3000031-3l-1.3000031,3H189.8999939z"></path> </g> <g> <path d="M0,30.6000004h10.3999996c8.3000011,0,15,6.6000004,15,14.8000011s-6.6999989,14.7999992-15,14.7999992H0V30.6000004z M10.3999996,54.0999985c5,0,8.3000011-3.9000015,8.3000011-8.7000008s-3.3999996-8.7000008-8.3000002-8.7000008H6.6999998 v17.4000015H10.3999996z"></path> <path d="M37.9000015,30.6000004h18.2999992v6.6000004H44.5999985v5h9.2000008v6.4000015h-9.2000008v5h11.7000008v6.5999985 H37.9000015V30.6000004z"></path> <path d="M85.1999969,45.4000015c0-8.2999992,6.8000031-15.1000004,15.0999985-15.1000004 c5.0999985,0,9.0999985,2.0000019,12,5.6000004l-5,4.0999985c-1.8000031-2.2999992-3.6999969-3.2999992-6.9000015-3.2999992 c-4.8000031,0-8.4000015,3.9000015-8.4000015,8.7000008s3.5999985,8.7000008,8.4000015,8.7000008 c2.5,0,4.1999969-0.4000015,5.6999969-1.5v-4.0999985h-7.0999985l2.8000031-6.2000008h10.6999969v13.4000015 c-3,3.2999992-7.0999985,4.7999992-12.1999969,4.7999992C91.9000015,60.5,85.1999969,53.7000008,85.1999969,45.4000015z"></path> <path d="M123.8000031,45.4000015c0-8.2999992,6.8000031-15.1000004,15.1000061-15.1000004 s15.1000061,6.8000011,15.1000061,15.1000004S147.2000122,60.5,138.9000092,60.5S123.8000031,53.7000008,123.8000031,45.4000015z M147.3999939,45.4000015c0-4.7999992-3.6000061-8.7000008-8.3999939-8.7000008 c-4.8000031,0-8.3999939,3.9000015-8.3999939,8.7000008S134.2000122,54.1000023,139,54.1000023 C143.8000031,54.0999985,147.3999939,50.2000008,147.3999939,45.4000015z"></path> <path d="M166.6000061,30.6000004h6.6999969V53.5h11.5v6.5999985h-18.1999969V30.6000004z"></path> <path d="M196.5,30.6000004h6.6999969V53.5h11.5v6.5999985H196.5V30.6000004z"></path> <path d="M226.3999939,30.6000004h18.3000031v6.6000004H233v5h9.1999969v6.4000015H233v5h11.6999969v6.5999985h-18.3000031 V30.6000004z"></path> </g> </g> </svg> 